<svg width="263" height="67" viewBox="0 0 263 67" fill="none" xmlns="http://www.w3.org/2000/svg">
<path d="M88.4521 26.3009H82.2822V37.7091H80.5859V24.9122H88.4521V26.3009ZM87.9336 36.382L88.4961 35.6876C89.1289 34.8673 89.4893 33.6368 89.5771 31.9962L89.7266 28.1993H95.8525V36.382H97.0742V40.504H95.4482V37.7091H88.8125V40.504H87.1865L87.1953 36.382H87.9336ZM89.8584 36.382H94.2266V29.7023H91.2998L91.2031 31.9698C91.1035 33.8624 90.6553 35.3331 89.8584 36.382ZM102.822 37.8849C101.533 37.8849 100.484 37.463 99.6758 36.6193C98.8672 35.7697 98.4629 34.6359 98.4629 33.2179V32.9191C98.4629 31.9757 98.6416 31.1349 98.999 30.3966C99.3623 29.6525 99.8662 29.0724 100.511 28.6564C101.161 28.2345 101.864 28.0236 102.62 28.0236C103.856 28.0236 104.817 28.4308 105.503 29.2452C106.188 30.0597 106.531 31.2257 106.531 32.7433V33.42H100.089C100.112 34.3575 100.385 35.1163 100.906 35.6964C101.434 36.2706 102.102 36.5577 102.91 36.5577C103.484 36.5577 103.971 36.4406 104.369 36.2062C104.768 35.9718 105.116 35.6613 105.415 35.2745L106.408 36.048C105.611 37.2726 104.416 37.8849 102.822 37.8849ZM102.62 29.3595C101.964 29.3595 101.413 29.5997 100.968 30.0802C100.522 30.5548 100.247 31.2228 100.142 32.0841H104.905V31.9611C104.858 31.1349 104.636 30.4962 104.237 30.045C103.839 29.588 103.3 29.3595 102.62 29.3595ZM115.848 33.6573H114.661V37.7091H113.026V28.1993H114.661V32.2247H115.725L118.924 28.1993H120.893L117.131 32.7697L121.209 37.7091H119.144L115.848 33.6573ZM125.718 35.3273L127.933 28.1993H129.673L125.85 39.1769C125.258 40.7589 124.317 41.5499 123.028 41.5499L122.721 41.5236L122.114 41.4093V40.0909L122.554 40.1261C123.104 40.1261 123.532 40.0148 123.837 39.7921C124.147 39.5695 124.402 39.1622 124.602 38.5704L124.962 37.6036L121.569 28.1993H123.345L125.718 35.3273ZM138.91 37.7091H137.284V29.5441H132.907V37.7091H131.272V28.1993H138.91V37.7091ZM147.673 28.1993H149.299V37.7091H147.673V30.7745L143.287 37.7091H141.661V28.1993H143.287V35.1427L147.673 28.1993ZM158.976 29.5177H155.785V37.7091H154.159V29.5177H151.03V28.1993H158.976V29.5177ZM162.333 31.4777H164.803C165.881 31.4894 166.733 31.7706 167.36 32.3214C167.987 32.8722 168.301 33.6193 168.301 34.5626C168.301 35.5118 167.979 36.2736 167.334 36.8478C166.689 37.422 165.822 37.7091 164.732 37.7091H160.707V28.1993H162.333V31.4777ZM162.333 32.8048V36.382H164.75C165.359 36.382 165.831 36.2267 166.165 35.9161C166.499 35.5997 166.666 35.1691 166.666 34.6241C166.666 34.0968 166.502 33.6661 166.174 33.3322C165.852 32.9923 165.397 32.8165 164.812 32.8048H162.333ZM180.553 31.9962L174.743 29.7198V28.0499L182.249 31.3722V32.6554L174.743 35.9865V34.299L180.553 31.9962Z" fill="white"/>
<rect x="0.5" y="0.5" width="262" height="66" rx="33" stroke="white"/>
</svg>
